<?xml version="1.0" encoding="iso-8859-1"?>
<!-- Generator: Adobe Illustrator 17.0.0, SVG Export Plug-In . SVG Version: 6.00 Build 0)  -->
<!DOCTYPE svg PUBLIC "-//W3C//DTD SVG 1.1//EN" "http://www.w3.org/Graphics/SVG/1.1/DTD/svg11.dtd">
<svg version="1.1" id="Layer_1" xmlns="http://www.w3.org/2000/svg" xmlns:xlink="http://www.w3.org/1999/xlink" x="0px" y="0px"
	 width="358.474px" height="338.243px" viewBox="0 0 358.474 338.243" style="enable-background:new 0 0 358.474 338.243;"
	 xml:space="preserve">
<path style="fill:#FFFFFF;" d="M351.099,153.109L185.544,4.824c-9.833-8.807-17.877-5.212-17.877,7.988v22.31h-64.961
	c-1.821-8.013-8.974-14-17.539-14c-9.941,0-18,8.059-18,18c0,3.635,1.086,7.012,2.939,9.842L56.631,60.738
	c-2.329-1.842-5.265-2.95-8.465-2.95c-7.548,0-13.667,6.119-13.667,13.667s6.119,13.667,13.667,13.667
	c4.409,0,8.319-2.097,10.818-5.338l36.181,18.467c-0.636,1.842-0.999,3.812-0.999,5.871c0,9.941,8.059,18,18,18
	c4.212,0,8.077-1.458,11.144-3.881l11.924,11.405c-1.408,2.149-2.234,4.715-2.234,7.476c0,0.903,0.093,1.785,0.26,2.639
	l-51.463,20.457c-3.099-5.429-8.932-9.096-15.631-9.096c-9.941,0-18,8.059-18,18c0,9.941,8.059,18,18,18
	c6.048,0,11.386-2.992,14.65-7.566l26.776,13.92c-0.383,1.26-0.593,2.595-0.593,3.979c0,2.51,0.688,4.855,1.87,6.876l-18.852,16.265
	c-3.168-2.778-7.306-4.475-11.851-4.475c-9.941,0-18,8.059-18,18c0,0.615,0.032,1.223,0.092,1.822l-34.148,8.383
	c-2.146-4.737-6.905-8.038-12.444-8.038C6.119,236.288,0,242.407,0,249.955c0,7.548,6.119,13.667,13.667,13.667
	c2.458,0,4.758-0.658,6.751-1.793l21.354,25.299c-2.854,3.185-4.605,7.38-4.605,11.994c0,9.941,8.059,18,18,18
	c8.564,0,15.718-5.987,17.539-14h94.961v22.31c0,13.2,8.045,16.794,17.877,7.987l165.555-148.285
	C360.932,176.327,360.932,161.916,351.099,153.109z M61.266,75.334c0.364-1.231,0.567-2.531,0.567-3.879
	c0-2.541-0.706-4.912-1.914-6.95l13.481-11.781c3.157,2.733,7.263,4.398,11.766,4.398c8.564,0,15.718-5.987,17.539-14h64.961v57
	h-37.961c-1.821-8.013-8.974-14-17.539-14c-6.096,0-11.474,3.038-14.73,7.674L61.266,75.334z M135.116,144.404
	c2.421,3.832,6.683,6.385,11.551,6.385c7.548,0,13.667-6.119,13.667-13.667c0-7.548-6.119-13.667-13.667-13.667
	c-2.979,0-5.727,0.964-7.972,2.581l-11.93-11.412c1.384-1.92,2.399-4.119,2.941-6.503h37.961v57H83.705
	c-0.02-0.086-0.045-0.17-0.066-0.255L135.116,144.404z M83.122,175.118c0.23-0.65,0.428-1.315,0.584-1.997h83.961v57H95.705
	c-0.471-2.074-1.299-4.01-2.418-5.743l18.845-16.258c2.339,1.874,5.303,3.002,8.534,3.002c7.548,0,13.667-6.119,13.667-13.667
	s-6.119-13.667-13.667-13.667c-4.373,0-8.256,2.061-10.758,5.257L83.122,175.118z M72.705,295.122c-1.821-8.013-8.974-14-17.539-14
	c-3.524,0-6.801,1.028-9.577,2.778l-21.348-25.291c1.931-2.357,3.091-5.369,3.091-8.654c0-0.26-0.025-0.514-0.039-0.771
	l34.166-8.387c2.653,6.633,9.126,11.325,16.707,11.325c8.564,0,15.718-5.987,17.539-14h71.961v57H72.705z"/>
</svg>
